PathFileType	4	(X/Y/Z)	C:/Users/beibeiliu/ov580/test_trc/capture2\sequence.11_training_dense_left.trc
DataRate	CameraRate	NumFrames	NumMarkers	Units	OrigDataRate	OrigDataStartFrame	OrigNumFrames
120	120	17	19	mm	120	307	350
Frame#	Time	ThumbCMC			ThumbMCP			ThumbIP			ThumbTip			IndexMCP			IndexPIP			IndexTip			MiddleMCP			MiddlePIP			MiddleTip			RingMCP			RingPIP			RingTip			PinkyMCP			PinkyPIP			PinkyTip			BackHand1			BackHand2			BackHand3	
		X0	Y0	Z0	X1	Y1	Z1	X2	Y2	Z2	X3	Y3	Z3	X4	Y4	Z4	X5	Y5	Z5	X6	Y6	Z6	X7	Y7	Z7	X8	Y8	Z8	X9	Y9	Z9	X10	Y10	Z10	X11	Y11	Z11	X12	Y12	Z12	X13	Y13	Z13	X14	Y14	Z14	X15	Y15	Z15	X16	Y16	Z16	X17	Y17	Z17	X18	Y18	Z18	
306	2.55	-214.252	-15.3461	-46.3335	-216.97	3.31524	-70.3641	-232.634	14.9018	-91.96	-242.914	25.1189	-104.984	-213.548	-46.3618	-117.072	-213.765	-44.0678	-145.463	-209.943	-39.8341	-169.661	-188.404	-60.9532	-118.502	-183.024	-60.6886	-146.232	-176.223	-53.7197	-177.892	-164.859	-62.0948	-116.266	-158.502	-58.9709	-143.579	-150.116	-53.1287	-164.618	-145.49	-57.3524	-101.231	-130.804	-53.576	-122.247	-115.733	-54.1035	-139.998	-175.808	-63.5677	-63.5055	-175.247	-62.1199	-35.5231	-202.713	-53.8682	-50.2272	
307	2.55833	-220.132	-15.7261	-44.1309	-223.839	4.5318	-64.4992	-234.125	12.6072	-87.0526	-245.549	21.5849	-105.838	-219.232	-48.9555	-113.129	-217.92	-47.8368	-140.51	-213.527	-45.0913	-164.824	-190.767	-63.037	-116.877	-185.874	-63.9953	-147.805	-180.253	-57.5541	-174.133	-172.254	-63.4888	-115.307	-164.575	-61.0692	-140.542	-154.108	-55.8524	-163.027	-145.444	-59.441	-101.332	-135.076	-56.5074	-119.533	-119.623	-56.4587	-142.18	-175.943	-64.4873	-60.1009	-178.444	-62.3953	-34.697	-208.745	-53.8622	-47.2457	
308	2.56667	-219.137	-17.5157	-45.189	-225.009	2.38073	-62.4058	-239.551	13.2933	-83.2465	-247.474	20.7094	-100.478	-223.579	-49.4175	-110.054	-227.145	-48.9112	-138.175	-220.987	-47.66	-162.192	-196.684	-65.2597	-113.146	-193.599	-65.1312	-142.317	-185.542	-62.3843	-169.593	-173.434	-65.6532	-113.389	-166.668	-64.8262	-137.301	-163.788	-57.367	-161.558	-148.759	-60.6401	-96.86	-136.214	-57.5338	-120.609	-125.716	-60.3654	-138.34	-181.392	-64.9748	-58.1953	-176.8	-62.3513	-31.4758	-206.564	-54.6737	-46.3976	
309	2.575	-221.796	-18.4284	-43.9638	-225.094	-1.24955	-64.1104	-241.143	9.90244	-85.0952	-253.276	18.1371	-103.796	-226.113	-51.6602	-106.151	-226.742	-52.3526	-134.824	-227.032	-50.8752	-160.11	-202.714	-65.726	-112.374	-200.315	-66.4321	-138.945	-190.284	-63.8653	-168.559	-176.343	-66.8338	-108.563	-174.073	-64.9046	-136.931	-166.22	-59.0373	-165.546	-154.829	-62.0867	-100.78	-142.934	-59.598	-119.711	-131.792	-61.6413	-142.353	-179.258	-68.5937	-57.2482	-178.234	-61.5552	-27.2875	-208.885	-57.0887	-46.1132	
310	2.58333	-221.568	-18.8989	-41.7517	-229.151	0.337373	-61.9623	-239.161	8.355	-80.7481	-252.727	18.587	-97.7973	-228.762	-51.8068	-104.703	-228.69	-52.9729	-132.168	-226.73	-51.7569	-157.945	-203.397	-65.8075	-111.375	-199.515	-68.0661	-139.011	-196.258	-64.8699	-169.738	-178.662	-66.9181	-108.168	-176.072	-66.1452	-135.506	-167.632	-60.5235	-163.891	-154.607	-62.2344	-100.307	-143.293	-59.1317	-121.513	-135.491	-61.3221	-141.595	-177.93	-67.8363	-56.5739	-180.782	-61.3952	-29.0959	-209.116	-53.2542	-40.3153	
311	2.59167	-218.747	-17.8142	-37.3826	-226.169	-0.533594	-62.1996	-243.929	11.4075	-77.522	-252.645	16.3659	-97.4108	-225.567	-54.5636	-104.418	-230.911	-53.8082	-129.411	-233.993	-52.2234	-154.593	-205.898	-66.1416	-108.328	-200.136	-69.4241	-137.389	-199.381	-65.3038	-169.006	-181.221	-66.9146	-107.426	-175.335	-67.5522	-134.631	-171.659	-62.0044	-160.806	-157.252	-62.2177	-101.249	-147.851	-60.0986	-121.073	-134.149	-61.535	-141.336	-177.674	-66.1353	-56.3377	-178.621	-59.0313	-25.3294	-211.272	-54.9156	-43.1491	
312	2.6	-222.53	-15.8901	-38.314	-226.438	-0.748019	-60.0807	-241.127	9.0127	-77.1065	-254.695	16.3551	-96.9012	-228.941	-53.487	-101.457	-233.158	-53.0652	-129.434	-232.204	-53.5418	-155.822	-202.249	-67.1673	-106.153	-206.634	-68.2586	-137.838	-201.929	-65.4023	-168.313	-181.117	-67.621	-107.54	-180.017	-67.1503	-132.562	-177.468	-60.685	-160.844	-156.183	-61.9673	-101.086	-147.634	-58.8216	-121.466	-134.98	-63.5493	-139.299	-179.154	-65.3717	-56.2262	-174.69	-58.7581	-25.0564	-207.349	-51.6311	-37.8448	
313	2.60833	-220.542	-13.5619	-33.3139	-224.539	0.0740615	-55.3148	-243.272	9.03973	-79.5451	-257.082	17.0977	-92.4481	-228.86	-52.2484	-96.8637	-231.721	-54.779	-124.195	-234.727	-53.9636	-151.871	-207.864	-66.4501	-105.046	-202.604	-70.6067	-134.414	-203.975	-67.0516	-165.416	-182.761	-68.068	-107.032	-176.05	-68.2318	-132.409	-177.514	-62.5032	-160.541	-157.986	-60.3825	-95.929	-148.643	-60.5549	-119.303	-137.879	-62.4871	-140.817	-182.704	-65.7689	-54.9796	-174.994	-60.2193	-23.0613	-208.463	-51.8578	-37.1934	
314	2.61667	-218.3	-15.0562	-32.3254	-224.736	0.44649	-57.4731	-241.814	10.5622	-73.4417	-253.078	16.9203	-91.1104	-228.166	-53.0357	-95.133	-233.263	-54.7835	-123.491	-237.496	-53.2215	-151.017	-204.902	-66.661	-102.46	-206.591	-70.2982	-131.661	-206.577	-67.2603	-162.348	-180.233	-68.2192	-102.928	-182.81	-67.5122	-128.814	-180.441	-63.8613	-156.613	-159.408	-62.2927	-98.3727	-149.114	-60.4457	-115.355	-137.896	-64.9094	-138.807	-178.792	-65.3427	-55.5263	-172.517	-59.0366	-22.93	-204.591	-53.2984	-37.8332	
315	2.625	-217.517	-13.1815	-32.2607	-222.968	2.47434	-56.0631	-238.469	11.4175	-73.2723	-256.826	19.3218	-91.5909	-230.849	-52.4661	-99.3726	-238.44	-53.2497	-123.634	-241.11	-51.8718	-149.12	-208.028	-66.8604	-106.112	-210.023	-70.3084	-133.691	-206.436	-67.8091	-162.378	-183.484	-66.3151	-104.348	-181.845	-66.5515	-132.199	-179.011	-63.0709	-157.779	-158.601	-60.6982	-98.4249	-150.175	-59.6277	-120.457	-138.898	-62.3645	-143.513	-181.405	-62.482	-52.5465	-171.506	-58.7587	-24.8072	-204.1	-52.4095	-35.6843	
316	2.63333	-216.118	-12.5063	-33.181	-223.114	2.28154	-57.461	-243.262	14.5146	-74.3136	-250.604	20.7314	-89.4222	-230.933	-49.3207	-92.7545	-236.568	-51.8135	-120.138	-244.914	-48.1997	-149.278	-210.23	-64.5185	-102.818	-208.399	-68.6266	-131.228	-208.984	-66.3159	-163.592	-183.532	-66.504	-106.26	-182.787	-67.0825	-130.32	-179.688	-63.2074	-156.636	-156.192	-61.9416	-99.6848	-149.265	-59.1157	-118.988	-143.334	-62.3918	-140.484	-181.591	-62.204	-50.6675	-175.479	-58.1663	-22.2104	-209.102	-50.9074	-35.0308	
317	2.64167	-220.996	-9.04585	-31.3016	-223.67	7.44796	-52.3126	-241.501	19.2901	-71.311	-253.787	27.6084	-88.5177	-233.49	-48.3213	-96.028	-240.162	-47.5888	-119.292	-243.276	-45.1639	-149.702	-209.774	-63.701	-100.156	-217.25	-64.593	-130.985	-211.736	-65.0108	-158.422	-186.969	-65.0866	-104.959	-189.144	-64.8193	-128.127	-185.622	-61.3164	-156.967	-162.159	-61.4919	-95.5666	-154.506	-60.3539	-119.02	-146.305	-65.1521	-143	-183.772	-64.2285	-49.1279	-178.093	-56.7778	-22.1087	-210.165	-47.8921	-34.6942	
318	2.65	-219.68	-4.97812	-31.1822	-221.804	11.8759	-51.5987	-238.498	24.5774	-72.0403	-247.691	32.1541	-87.6942	-236.257	-42.1985	-96.3792	-245.869	-39.1938	-118.417	-246.512	-40.1486	-145.012	-216.845	-58.35	-105.096	-214.619	-62.2804	-130.2	-216.228	-59.8178	-160.156	-192.557	-60.2824	-101.164	-190.974	-62.5733	-129.929	-188.546	-58.251	-159.848	-163.213	-59.566	-95.2172	-158.911	-58.6215	-118.716	-148.895	-62.7687	-138.678	-185.248	-60.0278	-48.9688	-178.853	-53.9775	-21.7054	-211.478	-45.4452	-31.9526	
319	2.65833	-218.835	-0.649302	-33.5707	-221	18.0951	-51.0289	-236.737	31.5694	-71.2053	-244.47	38.2838	-87.1099	-240.04	-35.543	-94.9019	-244.082	-35.6008	-117.45	-246.533	-34.9035	-146.439	-215.233	-56.875	-105.403	-220.765	-57.41	-132.759	-219.962	-56.3655	-158.9	-194.588	-58.0934	-104.302	-192.591	-58.6823	-128.377	-190.399	-56.4975	-157.469	-168.922	-56.8687	-96.5756	-156.885	-57.9413	-116.851	-150.727	-63.9508	-141.408	-188.224	-57.2829	-54.8703	-181.903	-51.8172	-22.6024	-210.987	-42.7559	-33.7158	
320	2.66667	-214.083	1.11732	-30.2102	-219.502	21.1431	-54.7837	-232.846	35.3569	-71.6839	-245.569	46.3436	-87.0353	-236.607	-31.8689	-91.9262	-248.626	-28.978	-116.742	-253.947	-25.9467	-145.783	-217.315	-50.4398	-101.343	-224.968	-52.3672	-131.327	-221.108	-52.7376	-159.706	-197.287	-55.7682	-106.233	-195.285	-57.3843	-131.889	-194.205	-52.9322	-161.239	-169.24	-56.3927	-96.0976	-165.059	-56.5704	-119.09	-155.216	-63.2287	-143.923	-188.996	-57.8189	-53.7907	-183.132	-52.1386	-23.3412	-211.645	-36.6983	-31.6805	
321	2.675	-215.815	4.05913	-33.4788	-218.018	28.2587	-49.7455	-230.213	41.4147	-66.6863	-241.807	54.4823	-82.1854	-241.114	-26.6716	-95.4038	-251.621	-21.9937	-114.62	-256.756	-21.6511	-145.318	-226.3	-45.5666	-103.023	-227.63	-47.5444	-126.691	-229.014	-45.6653	-158.711	-203.468	-51.3709	-102.114	-203.444	-51.9484	-130.852	-201.431	-48.5742	-157.693	-176.782	-52.8879	-95.0833	-167.277	-55.4895	-120.044	-162.694	-61.8056	-143.926	-193.626	-52.8214	-51.8291	-188.311	-49.2342	-21.6149	-215.41	-34.9376	-32.1768	
322	2.68333	-213.55	10.7573	-28.2091	-215.861	30.8767	-52.8273	-227.615	48.0193	-65.9198	-238.33	59.244	-83.8909	-244.048	-20.6674	-95.3712	-251.79	-18.3111	-115.354	-256.039	-16.6134	-141.577	-231.385	-38.5105	-101.104	-231.684	-42.7442	-126.734	-237.121	-37.6102	-159.732	-204.939	-48.6528	-103.159	-206.812	-48.3783	-129.046	-206.555	-43.0635	-154.391	-180.98	-51.4469	-98.9765	-170.435	-53.5777	-120.85	-169.876	-57.2394	-141.037	-199.063	-46.4553	-50.4362	-189.855	-45.3736	-23.7265	-217.56	-29.7583	-36.394	
